# Wavefront OBJ file
# Exported by Maverick Model 3D 1.3.12
# Mon Apr 26 21:33:25 2021

mtllib 3dp_newspaper_hi.mtl

# 8 Vertices
v -17.439761 21.14396 -0.860976
v 17.439761 21.143959 1.021157
v -17.439761 0.000001 2.142427
v 17.439761 0.0 -2.142427
v 17.439761 0.0 2.142428
v -17.439761 0.000001 -2.142428
v -17.439761 21.14396 1.021156
v 17.439761 21.143959 -0.860975

# 36 Texture Coordinates
vt 0.887675 0.003504
vt 0.037511 0.003504
vt 0.017107 0.465993
vt 0.867271 0.996496
vt 0.017107 0.996496
vt 0.017107 0.520404
vt 0.017107 0.520404
vt 0.887675 0.520404
vt 0.867271 0.996496
vt 0.017107 0.465993
vt 0.880874 0.465993
vt 0.887675 0.003504
vt 0.010305 0.465993
vt 0.880874 0.465993
vt 0.880874 0.520404
vt 0.989694 0.010305
vt 0.908079 0.010305
vt 0.908079 0.996496
vt 0.880874 0.520404
vt 0.010305 0.520404
vt 0.010305 0.465993
vt 0.908079 0.996496
vt 0.908079 0.010305
vt 0.989694 0.010305
vt 0.989694 0.010305
vt 0.996496 0.996496
vt 0.908079 0.996496
vt 0.91488 0.112325
vt 0.91488 0.996496
vt 0.989695 0.996496
vt 0.908079 0.996496
vt 0.996496 0.996496
vt 0.989694 0.010305
vt 0.989695 0.996496
vt 0.989695 0.112325
vt 0.91488 0.112325

# 36 Vertex Normals
vn 0.0 0.060495 -0.998168
vn 0.0 0.060495 -0.998168
vn 0.0 0.489614 -0.871939
vn -0.0 0.484424 0.874833
vn -0.0 0.899259 0.437417
vn -0.0 0.052956 0.998597
vn -0.0 0.052956 0.998597
vn -0.0 0.052956 0.998597
vn -0.0 0.484424 0.874833
vn 0.0 0.489614 -0.871939
vn 0.0 0.899961 -0.43597
vn 0.0 0.060495 -0.998168
vn -0.0 -1.0 -0.0
vn -0.0 -1.0 -0.0
vn -0.0 -1.0 -0.0
vn 1.0 -0.0 -0.0
vn 1.0 -0.0 -0.0
vn 1.0 -0.0 -0.0
vn -0.0 -1.0 -0.0
vn -0.0 -1.0 -0.0
vn -0.0 -1.0 -0.0
vn -1.0 0.0 0.0
vn -1.0 0.0 0.0
vn -1.0 0.0 0.0
vn -1.0 0.0 0.0
vn -1.0 0.0 0.0
vn -1.0 0.0 0.0
vn 0.0 0.899961 -0.43597
vn 0.0 0.489614 -0.871939
vn -0.0 0.899259 0.437417
vn 1.0 -0.0 -0.0
vn 1.0 -0.0 0.0
vn 1.0 -0.0 -0.0
vn -0.0 0.899259 0.437417
vn -0.0 0.484424 0.874833
vn 0.0 0.899961 -0.43597

# 3dpnewspaper, 12 grouped triangles

usemtl 3dpsnewspaper
o 3dpnewspaper
g 3dpnewspaper

f 4/1/1 6/2/2 1/3/3
f 2/4/4 7/5/5 3/6/6
f 3/7/7 5/8/8 2/9/9
f 1/10/10 8/11/11 4/12/12
f 6/13/13 4/14/14 5/15/15
f 5/16/16 4/17/17 8/18/18
f 5/19/19 3/20/20 6/21/21
f 1/22/22 6/23/23 3/24/24
f 3/25/25 7/26/26 1/27/27
f 8/28/28 1/29/29 7/30/30
f 8/31/31 2/32/32 5/33/33
f 7/34/34 2/35/35 8/36/36
